<?xml version="1.0" encoding="UTF-8" standalone="no"?>
<svg
   width="500"
   height="148.35667"
   viewBox="0 0 129 38.27677"
   version="1.1"
   id="svg7"
   sodipodi:docname="foody logo.svg"
   inkscape:version="1.4 (86a8ad7, 2024-10-11)"
   xmlns:inkscape="http://www.inkscape.org/namespaces/inkscape"
   xmlns:sodipodi="http://sodipodi.sourceforge.net/DTD/sodipodi-0.dtd"
   xmlns="http://www.w3.org/2000/svg"
   xmlns:svg="http://www.w3.org/2000/svg">
  <defs
     id="defs7" />
  <sodipodi:namedview
     id="namedview7"
     pagecolor="#ffffff"
     bordercolor="#000000"
     borderopacity="0.25"
     inkscape:showpageshadow="2"
     inkscape:pageopacity="0.0"
     inkscape:pagecheckerboard="0"
     inkscape:deskcolor="#d1d1d1"
     inkscape:zoom="1.2537003"
     inkscape:cx="262.82198"
     inkscape:cy="78.56742"
     inkscape:window-width="1920"
     inkscape:window-height="1001"
     inkscape:window-x="-9"
     inkscape:window-y="-9"
     inkscape:window-maximized="1"
     inkscape:current-layer="svg7" />
  <g
     fill="none"
     fill-rule="evenodd"
     id="g7"
     transform="matrix(1.2958045,0,0,1.2958045,-19.079103,-17.2342)">
    <g
       fill="#ff5a00"
       fill-rule="nonzero"
       id="g6">
      <g
         id="g5">
        <g
           id="g4">
          <g
             id="g3">
            <g
               id="g2">
              <path
                 d="m 89.3,7.765 -0.008,8.17 c -0.008,1.845 1.466,3.374 3.313,3.39 h 0.1 c 1.863,-0.016 3.503,-1.554 3.503,-3.414 V 7.773 h 3.346 l -0.008,14.274 c -0.149,4.176 -3.578,7.484 -7.769,7.492 h -5.69 v -3.333 h 5.69 c 2.443,0 4.423,-1.984 4.431,-4.424 v -1.373 c -0.033,0.042 -0.149,0.199 -0.149,0.199 -1.002,1.257 -2.55,1.935 -4.15,1.81 -2.285,0 -3.8,-1.008 -4.745,-2.025 -0.861,-0.943 -1.334,-2.167 -1.325,-3.44 V 7.765 Z M 43.433,7.633 c 4.058,0.058 7.313,3.357 7.305,7.41 v 0.239 c -0.053,3.894 -3.194,7.08 -7.123,7.153 -0.132,0.009 -0.265,0 -0.397,0 -4.092,-0.058 -7.364,-3.423 -7.306,-7.508 0.058,-4.086 3.43,-7.352 7.52,-7.294 z m 16.548,0 c 4.058,0.058 7.313,3.357 7.305,7.41 v 0.239 c -0.053,3.894 -3.194,7.08 -7.123,7.153 -0.132,0.009 -0.265,0 -0.397,0 -4.092,-0.058 -7.363,-3.423 -7.305,-7.508 0.058,-4.086 3.429,-7.352 7.52,-7.294 z M 83.445,0.074 v 22.08 H 80.1 V 20.41 c -0.977,1.373 -2.609,2.142 -4.299,2.01 -3.246,0 -6.741,-2.53 -6.741,-7.327 -0.166,-3.87 2.84,-7.153 6.725,-7.319 0.132,-0.008 0.265,-0.008 0.397,-0.008 1.3,-0.025 2.585,0.34 3.678,1.05 V 0.075 h 3.586 z M 17.376,5.698 V 9.55 h -7.321 c -3.147,0.009 -6.08,2.994 -6.08,6.136 L 3.967,22.244 H 0.05 V 15.686 C 0.058,10.171 4.53,5.705 10.055,5.696 h 7.321 z M 35.06,0.008 v 3.697 c -2.849,0 -4.282,0.942 -4.282,3.076 v 0.86 h 4.216 v 2.969 h -4.265 v 11.544 h -3.62 V 10.602 h -2.26 v -2.97 h 2.227 v -0.86 c 0,-3.737 3.031,-6.764 6.775,-6.764 h 1.21 z m 41.487,10.817 c -2.443,0 -3.91,1.81 -3.91,4.25 0,2.44 1.467,4.25 3.91,4.25 2.667,0 3.967,-1.95 3.967,-4.25 0,-2.299 -1.292,-4.25 -3.967,-4.25 z m -33.163,0.083 c -2.286,-0.034 -4.158,1.794 -4.19,4.068 -0.034,2.283 1.797,4.151 4.074,4.185 h 0.224 c 2.236,-0.05 4.017,-1.894 3.967,-4.127 0,-2.258 -1.814,-4.093 -4.075,-4.126 z m 16.548,0 c -2.286,-0.034 -4.157,1.786 -4.19,4.068 -0.034,2.283 1.797,4.151 4.074,4.185 h 0.224 c 2.236,-0.05 4.009,-1.894 3.967,-4.127 0,-2.258 -1.814,-4.093 -4.075,-4.126 z M 17.393,0 V 3.903 H 0 V 0 Z"
                 transform="translate(14.723,13.3)"
                 id="path1" />
              <path
                 d="m 89.3,7.765 -0.008,8.17 c -0.008,1.845 1.466,3.374 3.313,3.39 h 0.1 c 1.863,-0.016 3.503,-1.554 3.503,-3.414 V 7.773 h 3.346 l -0.008,14.274 c -0.149,4.176 -3.578,7.484 -7.769,7.492 h -5.69 v -3.333 h 5.69 c 2.443,0 4.423,-1.984 4.431,-4.424 v -1.373 c -0.033,0.042 -0.149,0.199 -0.149,0.199 -1.002,1.257 -2.55,1.935 -4.15,1.81 -2.285,0 -3.8,-1.008 -4.745,-2.025 -0.861,-0.943 -1.334,-2.167 -1.325,-3.44 V 7.765 Z M 43.433,7.633 c 4.058,0.058 7.313,3.357 7.305,7.41 v 0.239 c -0.053,3.894 -3.194,7.08 -7.123,7.153 -0.132,0.009 -0.265,0 -0.397,0 -4.092,-0.058 -7.364,-3.423 -7.306,-7.508 0.058,-4.086 3.43,-7.352 7.52,-7.294 z m 16.548,0 c 4.058,0.058 7.313,3.357 7.305,7.41 v 0.239 c -0.053,3.894 -3.194,7.08 -7.123,7.153 -0.132,0.009 -0.265,0 -0.397,0 -4.092,-0.058 -7.363,-3.423 -7.305,-7.508 0.058,-4.086 3.429,-7.352 7.52,-7.294 z M 83.445,0.074 v 22.08 H 80.1 V 20.41 c -0.977,1.373 -2.609,2.142 -4.299,2.01 -3.246,0 -6.741,-2.53 -6.741,-7.327 -0.166,-3.87 2.84,-7.153 6.725,-7.319 0.132,-0.008 0.265,-0.008 0.397,-0.008 1.3,-0.025 2.585,0.34 3.678,1.05 V 0.075 h 3.586 z M 17.376,5.698 V 9.55 h -7.321 c -3.147,0.009 -6.08,2.994 -6.08,6.136 L 3.967,22.244 H 0.05 V 15.686 C 0.058,10.171 4.53,5.705 10.055,5.696 h 7.321 z M 35.06,0.008 v 3.697 c -2.849,0 -4.282,0.942 -4.282,3.076 v 0.86 h 4.216 v 2.969 h -4.265 v 11.544 h -3.62 V 10.602 h -2.26 v -2.97 h 2.227 v -0.86 c 0,-3.737 3.031,-6.764 6.775,-6.764 h 1.21 z m 41.487,10.817 c -2.443,0 -3.91,1.81 -3.91,4.25 0,2.44 1.467,4.25 3.91,4.25 2.667,0 3.967,-1.95 3.967,-4.25 0,-2.299 -1.292,-4.25 -3.967,-4.25 z m -33.163,0.083 c -2.286,-0.034 -4.158,1.794 -4.19,4.068 -0.034,2.283 1.797,4.151 4.074,4.185 h 0.224 c 2.236,-0.05 4.017,-1.894 3.967,-4.127 0,-2.258 -1.814,-4.093 -4.075,-4.126 z m 16.548,0 c -2.286,-0.034 -4.157,1.786 -4.19,4.068 -0.034,2.283 1.797,4.151 4.074,4.185 h 0.224 c 2.236,-0.05 4.009,-1.894 3.967,-4.127 0,-2.258 -1.814,-4.093 -4.075,-4.126 z M 17.393,0 V 3.903 H 0 V 0 Z"
                 transform="translate(14.723,13.3)"
                 id="path2" />
            </g>
          </g>
        </g>
      </g>
    </g>
  </g>
</svg>
